<svg width="42" height="50" viewBox="0 0 42 50" fill="none" xmlns="http://www.w3.org/2000/svg">
<path d="M9 19.5586C8.44772 19.5586 8 20.0063 8 20.5586V28.712C8 29.2643 8.44772 29.712 9 29.712H14.5559V42.9805C14.5559 43.5328 15.0036 43.9805 15.5559 43.9805H24.297C24.8493 43.9805 25.297 43.5328 25.297 42.9805V29.712H30.8528C31.3054 29.712 31.7016 29.408 31.8188 28.9709L34.004 20.8174C34.0845 20.5171 34.0208 20.1965 33.8315 19.9498C33.6422 19.7032 33.349 19.5586 33.0381 19.5586H25.297V16.4818C25.297 16.2298 25.4037 15.9727 25.6191 15.7718C25.8369 15.5686 26.1463 15.4435 26.4823 15.4435H33.0381C33.5904 15.4435 34.0381 14.9958 34.0381 14.4435V6.29004C34.0381 5.73775 33.5904 5.29004 33.0381 5.29004H26.4823C23.3408 5.29004 20.3152 6.45344 18.074 8.54388C15.8306 10.6365 14.5559 13.4902 14.5559 16.4818V19.5586H9Z" stroke="white" stroke-width="2" stroke-linecap="round" stroke-linejoin="round"/>
</svg>
