<svg width="20" height="20" viewBox="0 0 20 20" fill="none" xmlns="http://www.w3.org/2000/svg">
<path d="M11.1317 10.0785L19.7613 2.05883C20.0796 1.76302 20.0796 1.30288 19.7613 1.00707C19.443 0.711266 18.9478 0.711266 18.6295 1.00707L10 9.02672L1.37047 1.00707C1.05217 0.711266 0.557029 0.711266 0.238727 1.00707C-0.0795756 1.30288 -0.0795756 1.76302 0.238727 2.05883L8.86826 10.0785L0.238727 18.0981C-0.0795756 18.3939 -0.0795756 18.8541 0.238727 19.1499C0.380195 19.2813 0.592396 19.3799 0.804598 19.3799C1.0168 19.3799 1.229 19.3142 1.37047 19.1499L10 11.1302L18.6295 19.1499C18.771 19.2813 18.9832 19.3799 19.1954 19.3799C19.4076 19.3799 19.6198 19.3142 19.7613 19.1499C20.0796 18.8541 20.0796 18.3939 19.7613 18.0981L11.1317 10.0785Z" fill="black"/>
</svg>
