<svg width="487" height="25" viewBox="0 0 487 25" fill="none" xmlns="http://www.w3.org/2000/svg">
<g clip-path="url(#clip0_30_626)">
<path opacity="0.07" d="M37.2083 0H3.875C2.10417 0 0.75 1.35417 0.75 3.125V21.875C0.75 23.6458 2.20833 25 3.875 25H37.2083C38.9792 25 40.3333 23.6458 40.3333 21.875V3.125C40.3333 1.35417 38.875 0 37.2083 0Z" fill="black"/>
<path d="M37.2084 1.04163C38.3542 1.04163 39.2917 1.97913 39.2917 3.12496V21.875C39.2917 23.0208 38.3542 23.9583 37.2084 23.9583H3.87508C2.72925 23.9583 1.79175 23.0208 1.79175 21.875V3.12496C1.79175 1.97913 2.72925 1.04163 3.87508 1.04163H37.2084Z" fill="white"/>
<path fill-rule="evenodd" clip-rule="evenodd" d="M19.8218 16.0188C20.8478 15.3469 21.5103 14.3094 21.8083 12.9032L25.0843 17.0365H31.3635C30.6937 17.8822 29.8412 18.5653 28.8697 19.0344C27.8734 19.5382 26.7715 19.7978 25.6551 19.7917H13.8395C12.7232 19.7961 11.6216 19.5362 10.6249 19.0334C9.65087 18.5618 8.79754 17.8738 8.13013 17.0219H15.5145C17.3687 17.023 18.8041 16.6886 19.8218 16.0188ZM16.6322 11.2032C16.8968 11.4427 16.9666 11.7948 16.8426 12.2584C16.6864 12.7969 16.4864 13.173 16.2478 13.3875C15.9583 13.6438 15.5197 13.773 14.9312 13.773H10.6999L11.7426 10.8927H15.5655C16.0374 10.8927 16.3926 10.9959 16.6322 11.2032ZM28.7687 5.90317C29.7057 6.34507 30.5361 6.98433 31.203 7.77712H25.0583L21.9551 10.9917C21.8478 9.82504 21.2895 8.97608 20.2812 8.44692C19.4124 8.00004 18.1791 7.77608 16.5822 7.77608H8.29158C8.97516 6.97179 9.82532 6.32561 10.7832 5.88226C11.7412 5.43891 12.784 5.20898 13.8395 5.20837H25.6551C26.7468 5.20837 27.7853 5.43962 28.7687 5.90317ZM27.728 11.9594L31.5239 8.174C31.979 8.78509 32.3355 9.46383 32.5801 10.1855C32.8291 10.9302 32.952 11.7042 32.952 12.5063C32.952 13.2594 32.8405 13.9917 32.6187 14.7021C32.3972 15.3911 32.0745 16.0434 31.6614 16.6375L27.728 11.9594Z" fill="#E31F28"/>
</g>
<g clip-path="url(#clip1_30_626)">
<path opacity="0.07" d="M106.792 0H73.4583C71.6874 0 70.3333 1.35417 70.3333 3.125V21.875C70.3333 23.6458 71.7916 25 73.4583 25H106.792C108.562 25 109.917 23.6458 109.917 21.875V3.125C109.917 1.35417 108.458 0 106.792 0Z" fill="black"/>
<path d="M106.792 1.04163C107.938 1.04163 108.875 1.97913 108.875 3.12496V21.875C108.875 23.0208 107.938 23.9583 106.792 23.9583H73.4583C72.3125 23.9583 71.375 23.0208 71.375 21.875V3.12496C71.375 1.97913 72.3125 1.04163 73.4583 1.04163H106.792Z" fill="white"/>
<path d="M99.8123 10.5209H99.4998C99.0832 11.5625 98.7707 12.0834 98.4582 13.6459H100.437C100.125 12.0834 100.125 11.3542 99.8123 10.5209ZM102.833 16.6667H101.062C100.958 16.6667 100.958 16.6667 100.854 16.5625L100.646 15.625L100.542 15.4167H98.0415C97.9373 15.4167 97.8332 15.4167 97.8332 15.625L97.5207 16.5625C97.5207 16.6667 97.4165 16.6667 97.4165 16.6667H95.229L95.4373 16.1459L98.4582 9.06254C98.4582 8.54171 98.7707 8.33337 99.2915 8.33337H100.854C100.958 8.33337 101.062 8.33337 101.062 8.54171L102.521 15.3125C102.625 15.7292 102.729 16.0417 102.729 16.4584C102.833 16.5625 102.833 16.5625 102.833 16.6667ZM88.8748 16.3542L89.2915 14.4792C89.3957 14.4792 89.4998 14.5834 89.4998 14.5834C90.229 14.8959 90.9582 15.1042 91.6873 15C91.8957 15 92.2082 14.8959 92.4165 14.7917C92.9373 14.5834 92.9373 14.0625 92.5207 13.6459C92.3123 13.4375 91.9998 13.3334 91.6873 13.125C91.2707 12.9167 90.854 12.7084 90.5415 12.3959C89.2915 11.3542 89.7082 9.89587 90.4373 9.16671C91.0623 8.75004 91.3748 8.33337 92.2082 8.33337C93.4582 8.33337 94.8123 8.33337 95.4373 8.54171H95.5415C95.4373 9.16671 95.3332 9.68754 95.1248 10.3125C94.604 10.1042 94.0832 9.89587 93.5623 9.89587C93.2498 9.89587 92.9373 9.89587 92.6248 10C92.4165 10 92.3123 10.1042 92.2082 10.2084C91.9998 10.4167 91.9998 10.7292 92.2082 10.9375L92.729 11.3542C93.1457 11.5625 93.5623 11.7709 93.8748 11.9792C94.3957 12.2917 94.9165 12.8125 95.0207 13.4375C95.229 14.375 94.9165 15.2084 94.0832 15.8334C93.5623 16.25 93.354 16.4584 92.6248 16.4584C91.1665 16.4584 90.0207 16.5625 89.0832 16.25C88.979 16.4584 88.979 16.4584 88.8748 16.3542ZM85.229 16.6667C85.3332 15.9375 85.3332 15.9375 85.4373 15.625C85.9582 13.3334 86.479 10.9375 86.8957 8.64587C86.9998 8.43754 86.9998 8.33337 87.2082 8.33337H89.0832C88.8748 9.58337 88.6665 10.5209 88.354 11.6667C88.0415 13.2292 87.729 14.7917 87.3123 16.3542C87.3123 16.5625 87.2082 16.5625 86.9998 16.5625M75.5415 8.54171C75.5415 8.43754 75.7498 8.33337 75.854 8.33337H79.3957C79.9165 8.33337 80.3332 8.64587 80.4373 9.16671L81.3748 13.75C81.3748 13.8542 81.3748 13.8542 81.479 13.9584C81.479 13.8542 81.5832 13.8542 81.5832 13.8542L83.7707 8.54171C83.6665 8.43754 83.7707 8.33337 83.8748 8.33337H86.0623C86.0623 8.43754 86.0623 8.43754 85.9582 8.54171L82.729 16.1459C82.6248 16.3542 82.6248 16.4584 82.5207 16.5625C82.4165 16.6667 82.2082 16.5625 81.9998 16.5625H80.4373C80.3332 16.5625 80.229 16.5625 80.229 16.3542L78.5623 9.89587C78.354 9.68754 78.0415 9.37504 77.6248 9.27087C76.9998 8.95837 75.854 8.75004 75.6457 8.75004L75.5415 8.54171Z" fill="#142688"/>
</g>
<g clip-path="url(#clip2_30_626)">
<path opacity="0.07" d="M176.375 0H143.042C141.271 0 139.917 1.35417 139.917 3.125V21.875C139.917 23.6458 141.375 25 143.042 25H176.375C178.146 25 179.5 23.6458 179.5 21.875V3.125C179.5 1.35417 178.042 0 176.375 0Z" fill="black"/>
<path d="M176.375 1.04163C177.521 1.04163 178.458 1.97913 178.458 3.12496V21.875C178.458 23.0208 177.521 23.9583 176.375 23.9583H143.042C141.896 23.9583 140.958 23.0208 140.958 21.875V3.12496C140.958 1.97913 141.896 1.04163 143.042 1.04163H176.375Z" fill="white"/>
<path d="M155.542 19.7917C159.569 19.7917 162.833 16.5271 162.833 12.5C162.833 8.47296 159.569 5.20837 155.542 5.20837C151.515 5.20837 148.25 8.47296 148.25 12.5C148.25 16.5271 151.515 19.7917 155.542 19.7917Z" fill="#EB001B"/>
<path d="M163.875 19.7917C167.902 19.7917 171.167 16.5271 171.167 12.5C171.167 8.47296 167.902 5.20837 163.875 5.20837C159.848 5.20837 156.583 8.47296 156.583 12.5C156.583 16.5271 159.848 19.7917 163.875 19.7917Z" fill="#F79E1B"/>
<path d="M162.833 12.5C162.833 10 161.583 7.8125 159.708 6.5625C157.833 7.91667 156.583 10.1042 156.583 12.5C156.583 14.8958 157.833 17.1875 159.708 18.4375C161.583 17.1875 162.833 15 162.833 12.5Z" fill="#FF5F00"/>
</g>
<g clip-path="url(#clip3_30_626)">
<path opacity="0.07" d="M245.958 0H212.625C210.854 0 209.5 1.35417 209.5 3.125V21.875C209.5 23.6458 210.958 25 212.625 25H245.958C247.729 25 249.083 23.6458 249.083 21.875V3.125C249.083 1.35417 247.625 0 245.958 0Z" fill="black"/>
<path d="M245.958 1.04163C247.104 1.04163 248.042 1.97913 248.042 3.12496V21.875C248.042 23.0208 247.104 23.9583 245.958 23.9583H212.625C211.479 23.9583 210.542 23.0208 210.542 21.875V3.12496C210.542 1.97913 211.479 1.04163 212.625 1.04163H245.958Z" fill="white"/>
<path d="M234.396 8.64587C234.604 7.60421 234.396 6.87504 233.771 6.25004C233.146 5.52087 232 5.20837 230.542 5.20837H226.271C225.958 5.20837 225.75 5.41671 225.646 5.72921L224.083 16.25C224.083 16.4584 224.187 16.6667 224.396 16.6667H227.208L227.625 13.125L229.5 10.8334L234.396 8.64587Z" fill="#003087"/>
<path d="M234.396 8.64587L234.188 8.85421C233.667 11.7709 231.896 12.8125 229.396 12.8125H228.25C227.938 12.8125 227.729 13.0209 227.625 13.3334L227 17.3959L226.792 18.4375C226.792 18.6459 226.896 18.8542 227.104 18.8542H229.292C229.604 18.8542 229.813 18.6459 229.813 18.4375V18.3334L230.229 15.8334V15.7292C230.229 15.5209 230.542 15.3125 230.75 15.3125H231.063C233.25 15.3125 234.917 14.4792 235.333 11.9792C235.542 10.9375 235.438 10.1042 234.917 9.47921C234.813 8.95837 234.604 8.75004 234.396 8.64587Z" fill="#3086C8"/>
<path d="M233.771 8.4375C233.667 8.33333 233.562 8.33333 233.458 8.33333C233.354 8.33333 233.25 8.33333 233.146 8.22917C232.833 8.125 232.417 8.125 232 8.125H228.875C228.771 8.125 228.667 8.125 228.667 8.22917C228.458 8.33333 228.354 8.4375 228.354 8.64583L227.625 13.2292V13.3333C227.625 13.0208 227.938 12.8125 228.25 12.8125H229.604C232.208 12.8125 233.875 11.7708 234.396 8.85417V8.64583C234.292 8.54167 234.083 8.4375 233.875 8.4375H233.771Z" fill="#012169"/>
</g>
<g clip-path="url(#clip4_30_626)">
<path opacity="0.07" d="M315.542 0H282.208C280.437 0 279.083 1.35417 279.083 3.125V21.875C279.083 23.6458 280.542 25 282.208 25H315.542C317.312 25 318.667 23.6458 318.667 21.875V3.125C318.667 1.35417 317.208 0 315.542 0Z" fill="black"/>
<path d="M315.542 1.04163C316.688 1.04163 317.625 1.97913 317.625 3.12496V21.875C317.625 23.0208 316.688 23.9583 315.542 23.9583H282.208C281.062 23.9583 280.125 23.0208 280.125 21.875V3.12496C280.125 1.97913 281.062 1.04163 282.208 1.04163H315.542Z" fill="white"/>
<path d="M294.708 19.7917C298.735 19.7917 302 16.5271 302 12.5C302 8.47296 298.735 5.20837 294.708 5.20837C290.681 5.20837 287.417 8.47296 287.417 12.5C287.417 16.5271 290.681 19.7917 294.708 19.7917Z" fill="#EB001B"/>
<path d="M303.042 19.7917C307.069 19.7917 310.333 16.5271 310.333 12.5C310.333 8.47296 307.069 5.20837 303.042 5.20837C299.015 5.20837 295.75 8.47296 295.75 12.5C295.75 16.5271 299.015 19.7917 303.042 19.7917Z" fill="#00A2E5"/>
<path d="M302 12.5C302 10 300.75 7.8125 298.875 6.5625C297 7.91667 295.75 10.1042 295.75 12.5C295.75 14.8958 297 17.1875 298.875 18.4375C300.75 17.1875 302 15 302 12.5Z" fill="#7375CF"/>
</g>
<g clip-path="url(#clip5_30_626)">
<path opacity="0.07" d="M385.125 0H351.792C350.021 0 348.667 1.35417 348.667 3.125V21.875C348.667 23.6458 350.125 25 351.792 25H385.125C386.896 25 388.25 23.6458 388.25 21.875V3.125C388.25 1.35417 386.792 0 385.125 0Z" fill="black"/>
<path d="M385.125 1.04163C386.271 1.04163 387.208 1.97913 387.208 3.12496V21.875C387.208 23.0208 386.271 23.9583 385.125 23.9583H351.792C350.646 23.9583 349.708 23.0208 349.708 21.875V3.12496C349.708 1.97913 350.646 1.04163 351.792 1.04163H385.125Z" fill="white"/>
<path d="M361.167 12.5V16.3542C361.167 16.6667 360.958 16.6667 360.646 16.5625C358.667 15.7292 357.521 13.125 358.25 10.9375C358.667 9.79171 359.5 8.85421 360.646 8.43754C361.063 8.22921 361.167 8.33337 361.167 8.64587V12.5ZM363.25 12.5V8.64587C363.25 8.33337 363.25 8.33337 363.563 8.43754C365.75 9.27087 366.896 11.875 366.063 14.0625C365.646 15.2084 364.813 16.1459 363.667 16.5625C363.25 16.7709 363.25 16.6667 363.25 16.3542V12.5ZM370.75 5.20837H362.208C366.167 5.20837 369.292 8.43754 369.292 12.5C369.292 16.5625 366.167 19.7917 362.208 19.7917H370.75C374.708 19.7917 377.833 16.5625 377.833 12.5C377.833 8.43754 374.708 5.20837 370.75 5.20837Z" fill="#3086C8"/>
</g>
<g clip-path="url(#clip6_30_626)">
<rect width="68.1034" height="25" transform="translate(418.25)" fill="#FF782D"/>
<path d="M486.353 0H418.25V25H486.353V0Z" fill="white"/>
<path fill-rule="evenodd" clip-rule="evenodd" d="M425.838 17.659H423.201L427.827 5.42407H430.372L434.998 17.659H432.361L428.984 8.68679L425.838 17.659ZM429.169 8.68679C428.104 11.5824 428.66 10.1142 429.169 8.68679V8.68679ZM459.75 17.863C460.28 17.8666 460.805 17.7659 461.285 17.5684C461.765 17.3708 462.189 17.0814 462.527 16.7211V17.3328C462.52 17.3735 462.523 17.4151 462.536 17.4546C462.55 17.4941 462.573 17.5305 462.604 17.5615C462.634 17.5925 462.672 17.6173 462.715 17.6341C462.757 17.6509 462.804 17.6594 462.85 17.659H464.978V5.42407H462.341V10.1549C461.987 9.83569 461.561 9.58412 461.092 9.41575C460.622 9.24738 460.119 9.16585 459.612 9.17617C458.972 9.17436 458.338 9.28965 457.752 9.5147C457.165 9.73975 456.637 10.0697 456.202 10.4836C455.767 10.8976 455.435 11.3865 455.225 11.9196C455.016 12.4527 454.934 13.0183 454.985 13.5807C454.953 14.1436 455.053 14.7064 455.28 15.2334C455.507 15.7604 455.855 16.2401 456.303 16.6425C456.751 17.0449 457.288 17.3612 457.881 17.5712C458.475 17.7813 459.111 17.8806 459.75 17.863ZM460.26 15.7015C459.926 15.702 459.595 15.6422 459.288 15.526C458.981 15.4098 458.704 15.2396 458.474 15.0258C458.245 14.8119 458.067 14.5589 457.953 14.2824C457.838 14.0059 457.789 13.7116 457.808 13.4176C457.795 13.127 457.849 12.8371 457.967 12.5653C458.084 12.2936 458.263 12.0456 458.492 11.8361C458.721 11.6267 458.995 11.4602 459.299 11.3465C459.603 11.2328 459.93 11.1743 460.26 11.1745C460.881 11.2482 461.451 11.5183 461.864 11.9346C462.277 12.3508 462.505 12.8851 462.505 13.438C462.505 13.991 462.277 14.5251 461.864 14.9414C461.451 15.3577 460.881 15.6277 460.26 15.7015ZM470.392 17.863C470.915 17.8664 471.432 17.7654 471.905 17.5676C472.377 17.3699 472.793 17.0805 473.121 16.7211V17.3328C473.121 17.4193 473.16 17.5023 473.23 17.5635C473.299 17.6247 473.394 17.659 473.492 17.659H475.62V9.21699H473.492C473.397 9.22585 473.308 9.26303 473.241 9.32241C473.174 9.38178 473.131 9.4597 473.121 9.5432V10.0326C472.775 9.71449 472.358 9.46327 471.896 9.29478C471.434 9.12629 470.938 9.04423 470.438 9.05382C469.798 9.05201 469.165 9.16731 468.578 9.39235C467.991 9.6174 467.463 9.94731 467.028 10.3613C466.594 10.7752 466.261 11.2642 466.051 11.7973C465.842 12.3304 465.76 12.896 465.811 13.4583C465.761 14.0173 465.841 14.5795 466.047 15.1098C466.254 15.6401 466.583 16.1272 467.013 16.5406C467.443 16.9539 467.965 17.2847 468.546 17.5122C469.127 17.7398 469.756 17.8592 470.392 17.863ZM470.901 15.7015C470.567 15.702 470.236 15.6422 469.929 15.526C469.622 15.4098 469.345 15.2396 469.116 15.0258C468.886 14.8119 468.709 14.5589 468.594 14.2824C468.479 14.0059 468.429 13.7116 468.448 13.4176C468.436 13.127 468.491 12.8371 468.608 12.5653C468.726 12.2936 468.904 12.0456 469.133 11.8361C469.362 11.6267 469.637 11.4602 469.94 11.3465C470.244 11.2328 470.571 11.1743 470.901 11.1745C471.522 11.2482 472.093 11.5183 472.506 11.9346C472.919 12.3508 473.146 12.8851 473.146 13.438C473.146 13.991 472.919 14.5251 472.506 14.9414C472.093 15.3577 471.522 15.6277 470.901 15.7015ZM441.522 8.89066C440.923 8.87617 440.328 8.98257 439.783 9.20168C439.238 9.42079 438.756 9.74682 438.375 10.1549V9.5432C438.375 9.45667 438.336 9.37364 438.267 9.31245C438.198 9.25126 438.104 9.21699 438.006 9.21699H436.155V17.6998H438.7V13.2545C438.7 11.7455 439.486 10.8483 440.781 10.8483C442.077 10.8483 442.678 11.6231 442.678 13.0913V17.6998H445.27V12.969C445.27 9.78788 443.419 8.89066 441.522 8.89066ZM447.351 21.8189H449.248C449.445 21.8183 449.635 21.7625 449.793 21.6599C449.951 21.5572 450.068 21.413 450.127 21.2479L455.309 9.013H452.672L450.497 14.3556L448.23 9.013H445.547L449.248 17.1696L447.351 21.8189ZM480.246 21.8189H478.349L480.246 17.4551L476.545 9.29851H479.229L481.542 14.6003L483.67 9.29851H486.307L481.126 21.5334C481.021 21.6457 480.884 21.7313 480.73 21.7815C480.575 21.8317 480.408 21.8446 480.246 21.8189Z" fill="black"/>
<path fill-rule="evenodd" clip-rule="evenodd" d="M424.727 13.8256C424.138 13.3725 423.381 13.1258 422.599 13.1322C421.66 13.1462 420.763 13.4828 420.101 14.0703L418.435 12.5205C419.527 11.5164 421.022 10.9305 422.599 10.8892C423.63 10.8864 424.64 11.1409 425.514 11.6232C426.532 12.235 426.763 12.8875 427.966 13.2545C428.428 13.3887 428.913 13.4574 429.4 13.4584C429.977 13.4049 430.54 13.2671 431.066 13.0507C431.451 12.8692 431.822 12.6647 432.176 12.4388L433.009 14.7227C432.558 14.9107 432.094 15.0743 431.621 15.2122C430.874 15.4994 430.075 15.6652 429.261 15.7016C428.393 15.6965 427.539 15.5151 426.763 15.1714C425.984 14.8548 425.29 14.3961 424.727 13.8256Z" fill="black"/>
</g>
<defs>
<clipPath id="clip0_30_626">
<rect width="39.5833" height="25" fill="white" transform="translate(0.75)"/>
</clipPath>
<clipPath id="clip1_30_626">
<rect width="39.5833" height="25" fill="white" transform="translate(70.3333)"/>
</clipPath>
<clipPath id="clip2_30_626">
<rect width="39.5833" height="25" fill="white" transform="translate(139.917)"/>
</clipPath>
<clipPath id="clip3_30_626">
<rect width="39.5833" height="25" fill="white" transform="translate(209.5)"/>
</clipPath>
<clipPath id="clip4_30_626">
<rect width="39.5833" height="25" fill="white" transform="translate(279.083)"/>
</clipPath>
<clipPath id="clip5_30_626">
<rect width="39.5833" height="25" fill="white" transform="translate(348.667)"/>
</clipPath>
<clipPath id="clip6_30_626">
<rect width="68.1034" height="25" fill="white" transform="translate(418.25)"/>
</clipPath>
</defs>
</svg>
