<svg width="20" height="17" viewBox="0 0 20 17" fill="none" xmlns="http://www.w3.org/2000/svg">
<path d="M5.23981 16.3113C4.34456 16.3113 3.61208 16.1282 3.04237 15.7619C2.47267 15.3957 2.00469 14.9277 1.63845 14.358C1.23152 13.6662 0.946663 12.9541 0.783889 12.2216C0.661809 11.4484 0.600769 10.8177 0.600769 10.3294C0.600769 8.33538 1.10944 6.52453 2.12677 4.8968C3.14411 3.26906 4.73115 1.94653 6.88789 0.929199L7.43725 2.02792C6.17576 2.55693 5.07704 3.39114 4.14109 4.53056C3.24584 5.66997 2.79821 6.82973 2.79821 8.00984C2.79821 8.49816 2.85925 8.92544 2.98133 9.29168C3.63243 8.76266 4.38525 8.49816 5.23981 8.49816C6.29784 8.49816 7.21344 8.84405 7.98661 9.53584C8.75979 10.2276 9.14637 11.1839 9.14637 12.4047C9.14637 13.5442 8.75979 14.4801 7.98661 15.2126C7.21344 15.9451 6.29784 16.3113 5.23981 16.3113ZM15.6166 16.3113C14.7214 16.3113 13.9889 16.1282 13.4192 15.7619C12.8495 15.3957 12.3815 14.9277 12.0153 14.358C11.6083 13.6662 11.3235 12.9541 11.1607 12.2216C11.0386 11.4484 10.9776 10.8177 10.9776 10.3294C10.9776 8.33538 11.4863 6.52453 12.5036 4.8968C13.5209 3.26906 15.108 1.94653 17.2647 0.929199L17.8141 2.02792C16.5526 2.55693 15.4539 3.39114 14.5179 4.53056C13.6227 5.66997 13.175 6.82973 13.175 8.00984C13.175 8.49816 13.2361 8.92544 13.3582 9.29168C14.0092 8.76266 14.7621 8.49816 15.6166 8.49816C16.6747 8.49816 17.5903 8.84405 18.3634 9.53584C19.1366 10.2276 19.5232 11.1839 19.5232 12.4047C19.5232 13.5442 19.1366 14.4801 18.3634 15.2126C17.5903 15.9451 16.6747 16.3113 15.6166 16.3113Z" fill="black"/>
</svg>
