<svg width="35" height="34" viewBox="0 0 35 34" fill="none" xmlns="http://www.w3.org/2000/svg">
<path d="M5.83325 26.9166C5.83325 27.6681 6.13176 28.3888 6.66312 28.9201C7.19447 29.4515 7.91514 29.75 8.66658 29.75C9.41803 29.75 10.1387 29.4515 10.6701 28.9201C11.2014 28.3888 11.4999 27.6681 11.4999 26.9166C11.4999 26.1652 11.2014 25.4445 10.6701 24.9132C10.1387 24.3818 9.41803 24.0833 8.66658 24.0833C7.91514 24.0833 7.19447 24.3818 6.66312 24.9132C6.13176 25.4445 5.83325 26.1652 5.83325 26.9166Z" stroke="#0D0C0C" stroke-width="1.8" stroke-linecap="round" stroke-linejoin="round"/>
<path d="M21.4166 26.9166C21.4166 27.6681 21.7151 28.3888 22.2465 28.9201C22.7778 29.4515 23.4985 29.75 24.25 29.75C25.0014 29.75 25.7221 29.4515 26.2534 28.9201C26.7848 28.3888 27.0833 27.6681 27.0833 26.9166C27.0833 26.1652 26.7848 25.4445 26.2534 24.9132C25.7221 24.3818 25.0014 24.0833 24.25 24.0833C23.4985 24.0833 22.7778 24.3818 22.2465 24.9132C21.7151 25.4445 21.4166 26.1652 21.4166 26.9166Z" stroke="#0D0C0C" stroke-width="1.8" stroke-linecap="round" stroke-linejoin="round"/>
<path d="M24.2499 23.8333H8.66658V4H5.83325" stroke="#0D0C0C" stroke-width="1.8" stroke-linecap="round" stroke-linejoin="round"/>
<path d="M8.66663 7.08331L28.5 8.49998L27.0833 18.4166H8.66663" stroke="#0D0C0C" stroke-width="1.8" stroke-linecap="round" stroke-linejoin="round"/>
</svg>
