<svg width="34" height="34" viewBox="0 0 34 34" fill="none" xmlns="http://www.w3.org/2000/svg">
<path d="M5.6665 26.9166C5.6665 27.6681 5.96501 28.3888 6.49637 28.9201C7.02772 29.4515 7.74839 29.75 8.49984 29.75C9.25128 29.75 9.97195 29.4515 10.5033 28.9201C11.0347 28.3888 11.3332 27.6681 11.3332 26.9166C11.3332 26.1652 11.0347 25.4445 10.5033 24.9132C9.97195 24.3818 9.25128 24.0833 8.49984 24.0833C7.74839 24.0833 7.02772 24.3818 6.49637 24.9132C5.96501 25.4445 5.6665 26.1652 5.6665 26.9166Z" stroke="#0D0C0C" stroke-width="2" stroke-linecap="round" stroke-linejoin="round"/>
<path d="M21.25 26.9166C21.25 27.6681 21.5485 28.3888 22.0799 28.9201C22.6112 29.4515 23.3319 29.75 24.0833 29.75C24.8348 29.75 25.5554 29.4515 26.0868 28.9201C26.6182 28.3888 26.9167 27.6681 26.9167 26.9166C26.9167 26.1652 26.6182 25.4445 26.0868 24.9132C25.5554 24.3818 24.8348 24.0833 24.0833 24.0833C23.3319 24.0833 22.6112 24.3818 22.0799 24.9132C21.5485 25.4445 21.25 26.1652 21.25 26.9166Z" stroke="#0D0C0C" stroke-width="2" stroke-linecap="round" stroke-linejoin="round"/>
<path d="M24.0832 23.8333H8.49984V4H5.6665" stroke="#0D0C0C" stroke-width="2" stroke-linecap="round" stroke-linejoin="round"/>
<path d="M8.5 7.08331L28.3333 8.49998L26.9167 18.4166H8.5" stroke="#0D0C0C" stroke-width="2" stroke-linecap="round" stroke-linejoin="round"/>
<circle cx="23.5" cy="9.5" r="8.5" fill="#FF7400"/>
<path d="M23.4824 13V7.47175H22.3358V6.89845H24.1376V13H23.4824Z" fill="white"/>
</svg>
