<svg width="16" height="17" viewBox="0 0 16 17" fill="none" xmlns="http://www.w3.org/2000/svg">
<path d="M0.3137 0.354974C0.514622 0.136992 0.787095 0.0145365 1.0712 0.0145365C1.3553 0.0145365 1.62778 0.136992 1.8287 0.354974L7.49977 6.50941L13.1708 0.354974C13.2697 0.24392 13.3879 0.155339 13.5186 0.0944C13.6493 0.0334615 13.7899 0.0013855 13.9322 4.3902e-05C14.0745 -0.0012977 14.2155 0.0281216 14.3472 0.0865857C14.4789 0.14505 14.5985 0.231388 14.6991 0.340561C14.7997 0.449735 14.8793 0.579559 14.9332 0.722456C14.987 0.865354 15.0141 1.01846 15.0129 1.17285C15.0117 1.32724 14.9821 1.47982 14.926 1.62168C14.8698 1.76354 14.7882 1.89184 14.6858 1.9991L9.01477 8.15354L14.6858 14.308C14.881 14.5273 14.989 14.821 14.9866 15.1259C14.9841 15.4307 14.8714 15.7224 14.6728 15.9379C14.4741 16.1535 14.2054 16.2758 13.9245 16.2785C13.6436 16.2811 13.3729 16.1639 13.1708 15.9521L7.49977 9.79767L1.8287 15.9521C1.62663 16.1639 1.35598 16.2811 1.07506 16.2785C0.79413 16.2758 0.525403 16.1535 0.326751 15.9379C0.1281 15.7224 0.0154185 15.4307 0.0129773 15.1259C0.0105361 14.821 0.118531 14.5273 0.3137 14.308L5.98477 8.15354L0.3137 1.9991C0.112838 1.78105 0 1.48536 0 1.17704C0 0.868719 0.112838 0.573022 0.3137 0.354974Z" fill="white"/>
</svg>
