<svg width="40" height="33" viewBox="0 0 40 33" fill="none" xmlns="http://www.w3.org/2000/svg">
<path d="M8.33333 23.375C8.33333 24.1043 8.68452 24.8038 9.30964 25.3195C9.93476 25.8353 10.7826 26.125 11.6667 26.125C12.5507 26.125 13.3986 25.8353 14.0237 25.3195C14.6488 24.8038 15 24.1043 15 23.375C15 22.6457 14.6488 21.9462 14.0237 21.4305C13.3986 20.9147 12.5507 20.625 11.6667 20.625C10.7826 20.625 9.93476 20.9147 9.30964 21.4305C8.68452 21.9462 8.33333 22.6457 8.33333 23.375Z" stroke="white" stroke-width="2" stroke-linecap="round" stroke-linejoin="round"/>
<path d="M25 23.375C25 24.1043 25.3512 24.8038 25.9763 25.3195C26.6014 25.8353 27.4493 26.125 28.3333 26.125C29.2174 26.125 30.0652 25.8353 30.6904 25.3195C31.3155 24.8038 31.6667 24.1043 31.6667 23.375C31.6667 22.6457 31.3155 21.9462 30.6904 21.4305C30.0652 20.9147 29.2174 20.625 28.3333 20.625C27.4493 20.625 26.6014 20.9147 25.9763 21.4305C25.3512 21.9462 25 22.6457 25 23.375Z" stroke="white" stroke-width="2" stroke-linecap="round" stroke-linejoin="round"/>
<path d="M8.33334 23.375H5.00001V17.875M3.33334 6.875H21.6667V23.375M15 23.375H25M31.6667 23.375H35V15.125M35 15.125H21.6667M35 15.125L30 8.25H21.6667" stroke="white" stroke-width="2" stroke-linecap="round" stroke-linejoin="round"/>
<path d="M5 12.375H11.6667" stroke="white" stroke-width="2" stroke-linecap="round" stroke-linejoin="round"/>
</svg>
