<svg width="18" height="18" viewBox="0 0 18 18" fill="none" xmlns="http://www.w3.org/2000/svg">
<path d="M14.089 7.82268C11.9363 7.82268 10.1914 6.07781 10.1914 3.92512C10.1914 1.77243 11.9363 0.0275574 14.089 0.0275574C16.2417 0.0275574 17.9865 1.77243 17.9865 3.92512C17.9753 6.07331 16.2372 7.81143 14.0901 7.82268H14.089ZM14.089 1.39162C12.7052 1.39162 11.5836 2.51324 11.5836 3.897C11.5836 5.28075 12.7052 6.40237 14.089 6.40237C15.4727 6.40237 16.5943 5.28075 16.5943 3.897C16.5848 2.51718 15.4688 1.40118 14.0901 1.39162H14.089Z" fill="#FF4D00"/>
<path d="M3.37388 15.0519C1.51031 15.0519 0 13.5416 0 11.6781C0 9.81451 1.51031 8.3042 3.37388 8.3042C5.23744 8.3042 6.74775 9.81451 6.74775 11.6781C6.74606 13.5411 5.23631 15.0503 3.37388 15.0519ZM3.37388 9.69582C2.27925 9.69582 1.39162 10.5834 1.39162 11.6781C1.39162 12.7727 2.27925 13.6603 3.37388 13.6603C4.4685 13.6603 5.35613 12.7727 5.35613 11.6781C5.35444 10.584 4.46738 9.69751 3.37388 9.69582Z" fill="#FF4D00"/>
<path d="M13.2868 18C11.7185 18 10.4473 16.7287 10.4473 15.1605C10.4473 13.5922 11.7185 12.321 13.2868 12.321C14.855 12.321 16.1263 13.5922 16.1263 15.1605C16.1246 16.7282 14.8545 17.9983 13.2868 18ZM13.2868 13.7132C12.4875 13.7132 11.8395 14.3612 11.8395 15.1605C11.8395 15.9598 12.4875 16.6078 13.2868 16.6078C14.0861 16.6078 14.7341 15.9598 14.7341 15.1605C14.7324 14.3617 14.0855 13.7143 13.2868 13.7132Z" fill="#FF4D00"/>
<path d="M5.5249 13.3954L6.04184 12.1028L11.4002 14.2459L10.8833 15.5385L5.5249 13.3954Z" fill="#FF4D00"/>
<path d="M5.14355 9.21543L11.0374 5.46243L11.785 6.63637L5.89112 10.3894L5.14355 9.21543Z" fill="#FF4D00"/>
</svg>
