<svg width="38" height="32" viewBox="0 0 38 32" fill="none" xmlns="http://www.w3.org/2000/svg">
<path d="M18.6667 5.35011C18.2649 5.35011 17.8799 5.18894 17.598 4.90272C15.7904 3.06752 13.1954 1.84732 10.6034 1.56334C8.01822 1.28012 5.59641 1.93616 3.9334 3.62323L18.6667 5.35011ZM18.6667 5.35011C19.0684 5.35011 19.4534 5.18894 19.7353 4.90272M18.6667 5.35011L19.7353 4.90272M19.7353 4.90272C21.543 3.06752 24.1379 1.84732 26.73 1.56334C29.3149 1.28014 31.7365 1.93606 33.3995 3.62284C35.1709 5.42233 35.8935 7.47977 35.8294 9.61588C35.7643 11.7902 34.8771 14.1418 33.2487 16.4175C30.0399 20.8982 25.0526 24.9905 18.6667 30.0822C12.2808 24.9905 7.29347 20.8982 4.08466 16.4175M19.7353 4.90272L4.08466 16.4175M4.08466 16.4175C2.45623 14.1418 1.56906 11.7902 1.50389 9.61588M4.08466 16.4175L1.50389 9.61588M1.50389 9.61588C1.43986 7.48004 2.16224 5.42285 3.93312 3.62352L1.50389 9.61588Z" fill="#F3F4F7" stroke="#FF4D00" stroke-width="3" stroke-linejoin="round"/>
</svg>
