<svg width="51" height="51" viewBox="0 0 51 51" fill="none" xmlns="http://www.w3.org/2000/svg">
<path d="M8.34656 16.7727C8.34656 14.5485 9.22593 12.4154 10.7912 10.8427C12.3565 9.26992 14.4795 8.38635 16.6931 8.38635H33.3863C35.5999 8.38635 37.7229 9.26992 39.2882 10.8427C40.8535 12.4154 41.7328 14.5485 41.7328 16.7727V33.5455C41.7328 35.7697 40.8535 37.9029 39.2882 39.4756C37.7229 41.0484 35.5999 41.9319 33.3863 41.9319H16.6931C14.4795 41.9319 12.3565 41.0484 10.7912 39.4756C9.22593 37.9029 8.34656 35.7697 8.34656 33.5455V16.7727Z" stroke="white" stroke-width="2" stroke-linecap="round" stroke-linejoin="round"/>
<path d="M18.7798 25.1592C18.7798 26.8273 19.4393 28.4272 20.6133 29.6067C21.7872 30.7863 23.3795 31.449 25.0397 31.449C26.7 31.449 28.2922 30.7863 29.4662 29.6067C30.6401 28.4272 31.2996 26.8273 31.2996 25.1592C31.2996 23.491 30.6401 21.8912 29.4662 20.7116C28.2922 19.5321 26.7 18.8694 25.0397 18.8694C23.3795 18.8694 21.7872 19.5321 20.6133 20.7116C19.4393 21.8912 18.7798 23.491 18.7798 25.1592Z" stroke="white" stroke-width="2" stroke-linecap="round" stroke-linejoin="round"/>
<path d="M34.4296 15.7245V15.7485" stroke="white" stroke-width="2" stroke-linecap="round" stroke-linejoin="round"/>
</svg>
