<svg width="38" height="32" viewBox="0 0 38 32" fill="#f3f4f7" xmlns="http://www.w3.org/2000/svg">
<path d="M18.3105 4.20098C18.4044 4.29639 18.5328 4.35011 18.6667 4.35011C18.8006 4.35011 18.9289 4.29639 19.0229 4.20098C20.9992 2.19454 23.8105 0.877204 26.6211 0.569289C29.4294 0.26162 32.1834 0.964424 34.1124 2.92155C36.0756 4.91603 36.9012 7.23786 36.829 9.64584C36.7564 12.0666 35.7743 14.6064 34.062 16.9993C30.653 21.7598 25.3209 26.0613 18.6667 31.3608C12.0125 26.0614 6.68045 21.7598 3.27142 16.9994C1.55907 14.6065 0.576901 12.0666 0.504336 9.64584C0.432155 7.23786 1.25771 4.91603 3.22091 2.92155C5.14989 0.964424 7.90396 0.26162 10.7123 0.569289C13.5228 0.877204 16.3341 2.19454 18.3105 4.20098Z" stroke="black" stroke-linejoin="round"/>
</svg>
