<svg width="99" height="20" viewBox="0 0 99 20" fill="none" xmlns="http://www.w3.org/2000/svg">
<path d="M18.4809 0H0V20H18.4809V0Z" fill="#00B67A"/>
<path d="M38.5019 0H20.021V20H38.5019V0Z" fill="#00B67A"/>
<path d="M58.5229 0H40.042V20H58.5229V0Z" fill="#00B67A"/>
<path d="M78.5439 0H60.063V20H78.5439V0Z" fill="#00B67A"/>
<path d="M98.5649 0H80.084V20H98.5649V0Z" fill="#00B67A"/>
<path d="M9.24054 13.4792L12.0512 12.7083L13.2255 16.625L9.24054 13.4792ZM15.7089 8.41667H10.7614L9.24054 3.375L7.71971 8.41667H2.77222L6.77642 11.5417L5.25559 16.5833L9.25979 13.4583L11.7239 11.5417L15.7089 8.41667Z" fill="white"/>
<path d="M29.2615 13.4792L32.0722 12.7083L33.2465 16.625L29.2615 13.4792ZM35.7299 8.41667H30.7824L29.2615 3.375L27.7407 8.41667H22.7932L26.7974 11.5417L25.2766 16.5833L29.2808 13.4583L31.7449 11.5417L35.7299 8.41667Z" fill="white"/>
<path d="M49.2825 13.4792L52.0932 12.7083L53.2675 16.625L49.2825 13.4792ZM55.7509 8.41667H50.8034L49.2825 3.375L47.7617 8.41667H42.8142L46.8184 11.5417L45.2976 16.5833L49.3018 13.4583L51.7659 11.5417L55.7509 8.41667Z" fill="white"/>
<path d="M69.3035 13.4792L72.1142 12.7083L73.2885 16.625L69.3035 13.4792ZM75.7719 8.41667H70.8244L69.3035 3.375L67.7827 8.41667H62.8352L66.8394 11.5417L65.3186 16.5833L69.3228 13.4583L71.7869 11.5417L75.7719 8.41667Z" fill="white"/>
<path d="M89.3245 13.4792L92.1352 12.7083L93.3095 16.625L89.3245 13.4792ZM95.7929 8.41667H90.8454L89.3245 3.375L87.8037 8.41667H82.8562L86.8604 11.5417L85.3396 16.5833L89.3438 13.4583L91.8079 11.5417L95.7929 8.41667Z" fill="white"/>
</svg>
